HIERARCHY
ROOT Hips
{
	OFFSET -183.429703 89.960052 22.660780
	CHANNELS 6 Xposition Yposition Zposition Zrotation Yrotation Xrotation 
	JOINT LeftUpLeg
	{
		OFFSET 0.103454 1.857828 10.548502
		CHANNELS 3 Zrotation Yrotation Xrotation
		JOINT LeftLeg
		{
			OFFSET 43.500000 -0.000023 -0.000008
			CHANNELS 3 Zrotation Yrotation Xrotation
			JOINT LeftFoot
			{
				OFFSET 42.372192 0.000008 0.000008
				CHANNELS 3 Zrotation Yrotation Xrotation
				JOINT LeftToe
				{
					OFFSET 17.299997 -0.000001 0.000000
					CHANNELS 3 Zrotation Yrotation Xrotation
					End Site
					{
						OFFSET 0.000000 0.000000 0.000000
					}
				}
			}
		}
	}
	JOINT RightUpLeg
	{
		OFFSET 0.103459 1.857828 -10.548505
		CHANNELS 3 Zrotation Yrotation Xrotation
		JOINT RightLeg
		{
			OFFSET 43.500046 -0.000027 0.000015
			CHANNELS 3 Zrotation Yrotation Xrotation
			JOINT RightFoot
			{
				OFFSET 42.372261 -0.000008 0.000019
				CHANNELS 3 Zrotation Yrotation Xrotation
				JOINT RightToe
				{
					OFFSET 17.299992 -0.000006 -0.000002
					CHANNELS 3 Zrotation Yrotation Xrotation
					End Site
					{
						OFFSET 0.000000 0.000000 0.000000
					}
				}
			}
		}
	}
	JOINT Spine
	{
		OFFSET 6.901967 -2.603729 0.000006
		CHANNELS 3 Zrotation Yrotation Xrotation
		JOINT Spine1
		{
			OFFSET 12.588098 -0.000001 -0.000005
			CHANNELS 3 Zrotation Yrotation Xrotation
			JOINT Spine2
			{
				OFFSET 12.343207 0.000001 -0.000003
				CHANNELS 3 Zrotation Yrotation Xrotation
				JOINT Neck
				{
					OFFSET 25.832897 -0.000006 -0.000001
					CHANNELS 3 Zrotation Yrotation Xrotation
					JOINT Head
					{
						OFFSET 11.766602 0.000010 0.000005
						CHANNELS 3 Zrotation Yrotation Xrotation
						End Site
						{
							OFFSET 0.000000 0.000000 0.000000
						}
					}
				}
				JOINT LeftShoulder
				{
					OFFSET 19.745901 -1.480368 6.000114
					CHANNELS 3 Zrotation Yrotation Xrotation
					JOINT LeftArm
					{
						OFFSET 11.284125 -0.000009 -0.000026
						CHANNELS 3 Zrotation Yrotation Xrotation
						JOINT LeftForeArm
						{
							OFFSET 33.000046 0.000005 0.000037
							CHANNELS 3 Zrotation Yrotation Xrotation
							JOINT LeftHand
							{
								OFFSET 25.200003 0.000016 -0.000001
								CHANNELS 3 Zrotation Yrotation Xrotation
								End Site
								{
									OFFSET 0.000000 0.000000 0.000000
								}
							}
						}
					}
				}
				JOINT RightShoulder
				{
					OFFSET 19.746088 -1.480377 -6.000074
					CHANNELS 3 Zrotation Yrotation Xrotation
					JOINT RightArm
					{
						OFFSET 11.284132 -0.000015 -0.000021
						CHANNELS 3 Zrotation Yrotation Xrotation
						JOINT RightForeArm
						{
							OFFSET 33.000107 0.000015 0.000018
							CHANNELS 3 Zrotation Yrotation Xrotation
							JOINT RightHand
							{
								OFFSET 25.199774 0.000138 0.000420
								CHANNELS 3 Zrotation Yrotation Xrotation
								End Site
								{
									OFFSET 0.000000 0.000000 0.000000
								}
							}
						}
					}
				}
			}
		}
	}
}
MOTION
Frames: 11
Frame Time: 0.033333
177.880997 88.432877 -415.909698 92.403642 -5.026964 78.844965 162.973627 -9.242909 166.779887 -75.990110 1.228369 -1.660414 69.945987 -2.621385 -10.931790 21.454560 0.003092 0.000000 151.598084 -8.146099 -169.798653 -29.383785 -3.611777 4.803571 82.904344 -4.485941 -5.281935 21.454555 -0.003113 -0.000018 8.568086 0.374971 -0.912606 7.117170 0.805158 -1.800503 6.799209 0.794407 -1.805325 1.685942 13.464880 -3.337426 -30.587909 -6.724551 2.784767 141.816010 -84.946188 36.837529 -59.229065 48.779736 6.666296 -30.531963 -20.314951 1.580261 11.628733 -4.477144 -4.940509 178.216178 80.744878 -0.303812 9.214946 -65.504936 -26.860308 -39.391965 12.568116 -1.310957 7.311599 -1.726348 -15.891606 
177.422607 89.199898 -412.234406 93.095554 -4.113758 77.656983 158.392510 -8.687194 168.129505 -79.386353 1.551956 -3.355136 70.499000 -1.305230 -10.800913 21.454558 0.003099 -0.000004 155.224177 -8.111290 -172.162827 -28.808908 -3.894704 5.319548 84.383333 -4.563678 -4.408650 21.454558 -0.003111 -0.000017 8.537237 0.124285 -0.608592 7.060154 0.285321 -1.208485 6.742128 0.278151 -1.210184 2.357919 12.604143 -3.492939 -26.938251 -6.992652 2.194633 148.595287 -84.972157 30.018657 -55.820397 52.689135 8.510214 -24.295596 -14.117873 1.075069 15.032138 2.004116 -0.219058 -177.945894 80.612215 3.588592 9.573555 -64.482197 -27.733206 -45.777813 12.881067 -1.508631 5.397333 -3.313639 -23.359793 
177.090698 89.767982 -408.472687 93.582853 -3.372011 76.090083 154.312237 -7.993195 169.556755 -80.234075 1.596856 -4.380786 70.172421 -0.739399 -11.220080 21.454550 0.003088 0.000001 158.620803 -7.770791 -174.151792 -28.493162 -3.708024 5.392637 86.050890 -4.424369 -3.839893 21.454555 -0.003099 -0.000017 8.526637 -0.012095 -0.388101 7.040413 -0.000676 -0.776209 6.722345 -0.005223 -0.776187 2.578491 11.370599 -2.946139 -25.911805 -7.705878 2.735404 163.344234 -84.543105 15.191744 -47.477591 57.258080 13.639457 -21.230840 -10.993910 0.832540 17.846878 4.910614 1.386628 -176.199715 80.881843 5.364694 10.341193 -63.566843 -27.974846 -52.492394 12.447967 -1.692185 2.905510 -1.520351 -25.865957 
176.813400 90.145157 -404.703186 94.033311 -2.867046 74.334957 150.557887 -7.175402 171.235479 -78.771773 1.443816 -4.862208 70.079578 -0.809720 -12.430154 21.454553 0.003097 -0.000002 161.611305 -6.984804 -175.260018 -28.418774 -3.288356 4.825082 87.915784 -3.912762 -3.575569 21.454560 -0.003118 -0.000019 8.493367 -0.112437 -0.200378 6.974275 -0.212686 -0.407148 6.656173 -0.215003 -0.405852 2.502501 9.939670 -2.077638 -26.576445 -8.235240 3.663365 179.669000 -83.676839 -1.250912 -33.494302 61.065197 25.229413 -20.855998 -10.350078 0.786339 18.247829 4.465538 -1.014312 -175.667807 81.559152 5.912572 11.152093 -63.152434 -27.446791 -58.395829 11.402270 -1.827914 0.477380 2.235004 -23.631398 
176.469894 90.271103 -401.027802 94.228054 -2.735167 72.492916 147.089203 -6.386090 172.896171 -75.096748 1.397636 -5.828976 70.497381 -0.349517 -13.327431 21.454550 0.003088 -0.000001 164.129377 -6.487002 -175.891851 -28.450069 -3.141935 4.054208 89.825047 -3.260027 -3.265928 21.454555 -0.003106 -0.000017 8.412329 -0.161309 0.073697 6.811646 -0.326705 0.137786 6.493535 -0.325739 0.139767 2.227304 8.597993 -1.319916 -27.828040 -8.317840 4.360051 -166.355855 -82.712286 -15.371247 -15.981960 62.612645 41.464805 -22.255302 -10.709407 0.827419 16.608068 2.257366 -5.056883 -175.380584 82.217494 6.211433 11.891297 -63.086148 -26.047025 -63.067515 10.202771 -1.920679 -1.470904 5.721935 -18.723854 
176.026703 90.213013 -397.395813 94.006578 -2.977506 70.508056 144.202697 -6.152800 174.458768 -69.323039 1.369427 -6.662423 70.725441 0.372220 -13.106348 21.454555 0.003099 -0.000004 166.587508 -6.586306 -176.690642 -28.052094 -3.167246 3.416235 91.567763 -2.702147 -2.856260 21.454562 -0.003117 -0.000018 8.297885 -0.117686 0.495960 6.581811 -0.263344 0.984449 6.263777 -0.257243 0.986021 1.832044 7.321692 -0.790597 -29.146077 -8.006301 4.648422 -154.567550 -81.798475 -27.317661 0.484470 61.843033 57.345476 -24.037541 -11.296376 0.890240 14.568968 0.195266 -9.246678 -176.166438 82.759872 5.422778 12.491782 -63.193730 -23.830448 -66.456880 9.276293 -1.989135 -2.677520 7.569345 -13.464559 
175.479401 90.106232 -393.709290 93.660472 -3.418979 68.560066 142.540707 -5.765786 175.651934 -61.040472 1.861393 -8.039893 70.463066 1.622831 -12.309294 21.454551 0.003090 0.000001 169.430233 -6.796994 -178.177519 -26.722287 -2.979445 3.068761 92.986100 -2.360704 -2.346808 21.454560 -0.003107 -0.000017 8.162955 -0.025213 0.989815 6.312183 -0.104208 1.976794 5.994288 -0.092135 1.977379 1.411307 5.916700 -0.400577 -30.307441 -7.413011 4.590301 -144.964755 -80.866209 -37.076080 13.448707 59.889093 69.618383 -25.197333 -12.008401 0.953684 13.316554 -0.485215 -12.882683 -179.253616 83.329817 2.309977 12.844904 -63.429132 -21.109152 -68.569034 8.839253 -2.043363 -3.062867 7.965046 -9.711036 
174.809296 90.000351 -389.931213 93.521737 -3.980170 67.062984 142.139570 -5.294801 176.531266 -50.014852 2.430046 -7.531738 69.803843 1.310044 -11.943694 21.454550 0.003081 0.000001 172.735757 -6.628603 179.896705 -24.270188 -2.492561 3.005782 94.048809 -2.216925 -1.632588 21.454557 -0.003109 -0.000018 7.974295 0.063331 1.428834 5.936405 0.053575 2.858991 5.618739 0.070966 2.858624 1.028204 4.400229 -0.097482 -31.067559 -6.691823 4.290483 -137.500683 -79.958190 -44.682319 23.380526 57.695229 77.728331 -25.583501 -12.774992 1.009066 13.153687 0.150302 -14.526457 175.820011 83.896129 -2.653700 12.791810 -63.663797 -18.410720 -69.322745 8.941951 -2.080873 -2.855233 7.859856 -8.244072 
173.966507 89.625977 -386.064209 93.282844 -4.841928 66.133061 142.756636 -4.748589 177.441826 -37.019953 2.474817 -6.822212 69.196927 0.839859 -11.715949 21.454551 0.003089 -0.000001 175.951643 -6.551599 178.350951 -21.734266 -2.036321 2.997512 95.150436 -2.112735 -0.812586 21.454557 -0.003108 -0.000017 7.694733 0.202472 1.803062 5.381738 0.321346 3.613544 5.064319 0.343281 3.611536 0.589830 2.970378 0.102367 -31.198518 -5.922367 3.811173 -131.212619 -79.216008 -51.097274 31.191797 55.540015 82.210609 -25.524912 -13.391690 1.047688 13.707357 1.272688 -13.234814 170.991081 84.262466 -7.515814 12.428800 -63.698576 -16.328537 -68.670524 9.535917 -2.095356 -2.459072 7.886340 -8.635226 
173.022705 89.201973 -382.266693 93.336400 -5.817573 65.529047 143.904163 -4.234609 178.317156 -23.840529 1.553964 -5.498789 69.748095 -0.692341 -13.648635 21.454550 0.003089 -0.000002 178.837794 -6.200196 177.636186 -19.310546 -1.734059 2.741672 95.871868 -1.859317 -0.008799 21.454560 -0.003120 -0.000018 7.355245 0.296539 2.118475 4.707111 0.507317 4.247190 4.389953 0.533064 4.244060 -0.095544 1.687127 0.216005 -30.676476 -5.000726 3.149642 -125.192696 -78.681423 -57.232149 37.105409 53.810064 83.903376 -25.288405 -13.827110 1.071814 14.361379 2.295575 -10.097683 166.559613 84.394473 -11.979938 11.824715 -63.634209 -14.939516 -66.711277 10.494771 -2.082768 -2.072313 8.227688 -9.759224 
172.084000 88.452782 -378.434387 92.946170 -6.689469 64.585941 145.437977 -4.044406 177.725975 -13.812565 0.803883 -3.671047 71.178795 -3.445911 -18.555652 21.454555 0.003098 0.000001 -178.970941 -6.022802 178.238089 -18.806219 -1.615274 1.589116 96.910849 -1.026542 0.694380 21.454557 -0.003093 -0.000016 7.092590 0.445927 2.492437 4.189964 0.802196 4.999338 3.873166 0.832479 4.994416 -1.072673 0.523247 0.362621 -29.771080 -3.873818 2.428400 -119.663316 -78.181200 -62.867178 41.562019 52.607463 84.153108 -25.020277 -14.232869 1.093529 14.826976 2.988793 -7.169305 159.918866 84.469619 -18.669974 11.128119 -63.636832 -14.383308 -63.563940 11.680729 -2.040581 -1.504228 8.948478 -10.336226 
